<svg width="14" height="14" viewBox="0 0 14 14" fill="none" xmlns="http://www.w3.org/2000/svg">
<path fill-rule="evenodd" clip-rule="evenodd" d="M1.33333 7C1.33333 3.87039 3.87039 1.33333 7 1.33333C10.1296 1.33333 12.6667 3.87039 12.6667 7C12.6667 10.1296 10.1296 12.6667 7 12.6667C6.3144 12.6667 5.65725 12.5449 5.04897 12.3219C5.43215 11.2906 5.80767 10.2565 6.1678 9.217C6.55067 9.48987 7.04453 9.66667 7.66667 9.66667C8.95667 9.66667 10.3166 8.81647 10.6537 7.13073C11.077 5.01432 9.38187 3 7 3C5.99813 3 5.01258 3.40247 4.27532 4.04162C3.53655 4.68207 3 5.60458 3 6.66667C3 7.18307 3.15596 7.75853 3.52766 8.13713C3.78471 8.3946 4.21391 8.39553 4.47141 8.13807C4.72679 7.88267 4.73166 7.4716 4.48599 7.21033C3.9621 6.55653 4.65235 5.47938 5.14871 5.04907C5.6639 4.60244 6.345 4.33333 7 4.33333C8.61813 4.33333 9.58967 5.65235 9.34627 6.86927C9.14433 7.87887 8.37667 8.33333 7.66667 8.33333C7.1214 8.33333 6.82773 8.10313 6.63993 7.80533C6.74247 7.48247 6.83027 7.1892 6.89247 6.95087C7.02073 6.45907 7.0982 5.8668 6.65593 5.49827C6.3272 5.22429 5.93913 5.28506 5.70187 5.40371C5.2609 5.62419 5 6.13993 5 6.66667C5 6.96093 5.04582 7.41687 5.21117 7.88767C4.78549 9.172 4.32386 10.4447 3.85283 11.7131C2.33363 10.6966 1.33333 8.96513 1.33333 7ZM7 0C3.13401 0 0 3.13401 0 7C0 10.866 3.13401 14 7 14C10.866 14 14 10.866 14 7C14 3.13401 10.866 0 7 0Z" fill="#F2E7D2"/>
</svg>
